<svg width="807" height="807" fill="none" xmlns="http://www.w3.org/2000/svg"><path fill-rule="evenodd" clip-rule="evenodd" d="M659 630.382V405c0-141.385-114.615-256-256-256S147 263.615 147 405v249h.638c5.176 42.267 41.196 75 84.862 75s79.686-32.733 84.862-75h1.276c5.176 42.267 41.196 75 84.862 75 43.665 0 79.686-32.733 84.862-75h1.276c5.176 42.267 41.197 75 84.862 75 47.22 0 85.5-38.28 85.5-85.5a86.22 86.22 0 0 0-1-13.118Z" fill="#78ADFD"/><circle cx="250.5" cy="170.5" r="103.5" fill="#78ADFD"/><circle cx="250" cy="170" r="64" fill="#fff"/><circle cx="556.5" cy="170.5" r="103.5" fill="#78ADFD"/><circle cx="556" cy="170" r="64" fill="#fff"/><circle cx="403" cy="354" r="133" fill="#fff"/><circle cx="403" cy="354" r="89" fill="#78ADFD"/><path fill="#78ADFD" d="M248 243h309v111H248z"/><circle cx="514" cy="354" r="22" fill="#fff"/><circle cx="514" cy="354" r="22" fill="#fff"/><circle cx="292" cy="354" r="22" fill="#fff"/><circle cx="292" cy="354" r="22" fill="#fff"/><path fill="#78ADFD" d="M314 203h166v62H314z"/></svg>