<svg width="512" height="512" fill="none" xmlns="http://www.w3.org/2000/svg"><path fill-rule="evenodd" clip-rule="evenodd" d="M166 63c-8.837 0-16 7.163-16 16v354c0 8.837 7.163 16 16 16h180c8.837 0 16-7.163 16-16v-32c0-8.837-7.163-16-16-16H214v-97h132c8.837 0 16-7.163 16-16v-32c0-8.837-7.163-16-16-16H214v-97h132c8.837 0 16-7.163 16-16V79c0-8.837-7.163-16-16-16H166Z" fill="url(#a)"/><defs><linearGradient id="a" x1="150" y1="63" x2="455" y2="583" gradientUnits="userSpaceOnUse"><stop stop-color="#FF4848"/><stop offset="1" stop-color="#0057FF"/></linearGradient></defs></svg>